# xmcd
#
# Track frame offsets:
#	150
#	12760
#	24958
#	37180
#	50139
#	61152
#	72812
#	86340
#	99897
#	113179
#	126729
#	135737
#	147991
#	161520
#	171303
#	184927
#	196524
#	209831
#	222584
#	231224
#
# Disc length: 3267 seconds
#
# Revision: 0
# Processed by: cddbd v1.5.2PL0 Copyright (c) Steve Scherf et al.
# Submitted via: EasyCDDAExtractor 2010.6.0.0
#
DISCID=280cc114
DTITLE=Various Artist - The Sun Essential Collection CD 3
DYEAR=2010
DGENRE=Blues
TTITLE0=Earl Hooker - Blue Guitar
TTITLE1=Howlin' Wolf - How Many More Years
TTITLE2=Joe Hill Louis - We All Gotta Go Sometime
TTITLE3=Rufus Thomas - Bear Cat
TTITLE4=Little Junior's Blue Flames - Mystery Train
TTITLE5=Doctor Ross - The Boogie Disease
TTITLE6=Howlin' Wolf - The Wolf Is At Your Door
TTITLE7=Jimmy and Walter - Easy
TTITLE8=Pat Hare - I'm Gonna Murder My Baby
TTITLE9=David 'Honeyboy' Edwards - Sweet Home Chicago
TTITLE10=Frank Frost - Just Come On Home
TTITLE11=Willie Nix - Seems Like A Million Years
TTITLE12=James Cotton - Cotton Crop Blues
TTITLE13=Sammy Lewis and Willie Johnson - So Long Baby, Goodbye
TTITLE14=Joe Hill Louis - She May Be Yours (But She Comes To Me Sometimes)
TTITLE15=Little Milton - If You Love Me Baby
TTITLE16=Little Junior's Blue Flames - Feelin' Good
TTITLE17=Doctor Ross - Come Back Baby
TTITLE18=Ray Smith - Break Up
TTITLE19=Gene Simmons - Drinkin' Scotch
EXTD=
EXTT0=
EXTT1=
EXTT2=
EXTT3=
EXTT4=
EXTT5=
EXTT6=
EXTT7=
EXTT8=
EXTT9=
EXTT10=
EXTT11=
EXTT12=
EXTT13=
EXTT14=
EXTT15=
EXTT16=
EXTT17=
EXTT18=
EXTT19=
PLAYORDER=
